<?xml version="1.0" standalone="no"?>
<!DOCTYPE svg PUBLIC "-//W3C//DTD SVG 20010904//EN"
 "http://www.w3.org/TR/2001/REC-SVG-20010904/DTD/svg10.dtd">
<svg version="1.0" xmlns="http://www.w3.org/2000/svg"
 width="155.000000pt" height="175.000000pt" viewBox="0 0 155.000000 175.000000"
 preserveAspectRatio="xMidYMid meet">
<metadata>
Created by potrace 1.14, written by Peter Selinger 2001-2017
</metadata>
<g transform="translate(0.000000,175.000000) scale(0.100000,-0.100000)"
fill="#000000" stroke="none">
<path d="M860 1648 c-63 -3 -169 -11 -235 -16 -132 -11 -316 -9 -355 3 -21 7
-23 6 -14 -6 7 -8 17 -56 24 -107 l13 -93 -30 -42 c-47 -67 -49 -75 -5 -33
l40 38 7 -53 c17 -145 23 -287 21 -531 0 -146 -3 -268 -6 -271 -3 -3 -60 -9
-126 -15 -67 -5 -130 -15 -140 -21 -15 -10 -7 -11 41 -7 69 6 449 21 930 37
182 6 348 14 370 19 42 10 -19 9 -684 -10 -195 -6 -355 -9 -357 -7 -2 2 -4
142 -5 313 -1 289 -5 365 -24 521 l-7 61 80 84 80 83 199 18 c109 9 214 17
234 17 l37 0 -1 -122 c0 -68 0 -132 0 -143 2 -128 2 -172 -2 -183 -6 -17 -75
10 -139 56 -28 19 -61 38 -75 42 -19 5 -28 16 -35 43 -5 20 -13 37 -18 37 -12
0 -10 -26 6 -63 13 -33 13 -33 -14 -29 -15 2 -31 -1 -34 -7 -5 -7 4 -11 23
-11 l31 0 -38 -35 c-48 -45 -23 -45 32 0 24 19 46 35 50 35 4 0 28 -14 54 -32
26 -18 71 -42 102 -55 l55 -22 0 -83 c0 -99 -6 -108 -134 -240 -46 -49 -81
-91 -77 -95 8 -9 160 140 188 186 l21 33 22 -58 c28 -75 111 -240 125 -249 19
-11 10 11 -39 111 -75 149 -88 201 -83 312 l4 94 122 -7 c67 -4 144 -8 170 -9
36 -1 50 -6 59 -21 15 -28 67 -78 73 -72 4 3 -6 21 -20 40 -33 44 -33 48 6 36
41 -11 58 -11 58 0 0 5 -20 14 -45 20 -25 6 -45 15 -45 19 0 4 18 17 40 30 22
12 40 27 40 32 0 16 -13 12 -66 -24 -59 -40 -86 -43 -266 -32 -114 7 -128 10
-128 26 0 17 2 17 31 3 28 -14 35 -14 74 1 57 22 115 86 115 127 0 36 -49 88
-83 89 -67 2 -89 -1 -110 -15 -23 -14 -25 -14 -31 0 -8 21 -8 82 0 166 6 64 8
67 38 76 l31 9 -30 5 c-16 2 -82 1 -145 -3z m287 -284 c31 -31 29 -57 -7 -98
-62 -70 -126 -79 -163 -22 -26 39 -22 83 12 117 26 26 36 29 83 28 39 -2 58
-8 75 -25z"/>
</g>
</svg>
