<?xml version="1.0" encoding="UTF-8" standalone="no"?>
<!-- Created with Inkscape (http://www.inkscape.org/) -->

<svg
   xmlns:dc="http://purl.org/dc/elements/1.1/"
   xmlns:cc="http://creativecommons.org/ns#"
   xmlns:rdf="http://www.w3.org/1999/02/22-rdf-syntax-ns#"
   xmlns:svg="http://www.w3.org/2000/svg"
   xmlns="http://www.w3.org/2000/svg"
   xmlns:sodipodi="http://sodipodi.sourceforge.net/DTD/sodipodi-0.dtd"
   xmlns:inkscape="http://www.inkscape.org/namespaces/inkscape"
   width="69.136086mm"
   height="60.928963mm"
   viewBox="0 0 69.136085 60.928963"
   version="1.1"
   id="svg8"
   inkscape:version="0.92.1 r15371"
   sodipodi:docname="ahorcado_4.svg">
  <defs
     id="defs2" />
  <sodipodi:namedview
     id="base"
     pagecolor="#ffffff"
     bordercolor="#666666"
     borderopacity="1.0"
     inkscape:pageopacity="0.0"
     inkscape:pageshadow="2"
     inkscape:zoom="1.979899"
     inkscape:cx="113.6104"
     inkscape:cy="135.33227"
     inkscape:document-units="mm"
     inkscape:current-layer="g3684"
     showgrid="false"
     fit-margin-top="10"
     fit-margin-left="10"
     fit-margin-right="10"
     fit-margin-bottom="10"
     inkscape:window-width="1280"
     inkscape:window-height="962"
     inkscape:window-x="-8"
     inkscape:window-y="-8"
     inkscape:window-maximized="1" />
  <metadata
     id="metadata5">
    <rdf:RDF>
      <cc:Work
         rdf:about="">
        <dc:format>image/svg+xml</dc:format>
        <dc:type
           rdf:resource="http://purl.org/dc/dcmitype/StillImage" />
        <dc:title></dc:title>
      </cc:Work>
    </rdf:RDF>
  </metadata>
  <g
     inkscape:label="Capa 1"
     inkscape:groupmode="layer"
     id="layer1"
     style="display:inline"
     transform="translate(14.610899,7.7240976)">
    <g
       id="g3684"
       transform="matrix(0.03527778,0,0,-0.03527778,-6.2748144,60.554795)"
       style="display:inline;fill:#000000;stroke:none">
      <path
         id="path3682"
         transform="matrix(7.4999995,0,0,-7.4999995,-236.29845,1935.4646)"
         style="display:inline;stroke-width:0.13333334"
         d="m 162.76758,37.802734 c -3.76875,-0.05 -10.29375,0.125391 -16.59375,0.525391 -8.4,0.4 -22.53399,1.468099 -31.33399,2.134766 C 97.239887,41.929557 72.70586,41.6625 67.505859,40.0625 c -2.8,-0.933333 -3.065234,-0.801172 -1.865234,0.798828 0.933333,1.066667 2.265885,7.467578 3.199219,14.267578 l 1.732422,12.400391 -4,5.599609 c -6.266667,8.933334 -6.532683,10.000391 -0.666016,4.400391 l 5.333984,-5.066406 0.933594,7.066406 c 2.266667,19.333334 3.065495,38.265603 2.798828,70.798823 0,19.46667 -0.398828,35.73477 -0.798828,36.13477 -0.4,0.4 -8.000781,1.2 -16.800781,2 -8.933334,0.66667 -17.332682,1.99883 -18.666016,2.79883 -2,1.33333 -0.933203,1.46693 5.466797,0.93359 9.200001,-0.8 59.866662,-2.80026 124.000002,-4.93359 24.26667,-0.8 46.3987,-1.86654 49.33203,-2.5332 5.6,-1.33334 -2.53255,-1.19935 -91.19922,1.33398 -26,0.8 -47.332942,1.20026 -47.599609,0.93359 -0.266666,-0.26666 -0.534635,-18.93437 -0.667969,-41.73437 C 77.90574,106.72838 77.373177,96.594923 74.839844,75.794922 L 73.90625,67.662109 84.572266,56.462891 95.240234,45.394531 121.77344,42.996094 c 14.53333,-1.2 28.53255,-2.267578 31.19922,-2.267578 h 4.93359 l -0.13281,16.267578 V 76.0625 c 0.26666,17.066668 0.26575,22.933735 -0.26758,24.40039 -0.8,2.26667 -9.99987,-1.333463 -18.5332,-7.466796 -3.73334,-2.533334 -8.13334,-5.068229 -10,-5.601563 -2.53334,-0.666666 -3.73269,-2.132421 -4.66602,-5.732422 -0.66667,-2.666666 -1.73372,-4.933593 -2.40039,-4.933593 -1.6,0 -1.33255,3.467057 0.80078,8.40039 1.73333,4.400001 1.73281,4.400521 -1.86719,3.867188 -2,-0.266667 -4.1332,0.13164 -4.5332,0.93164 -0.66667,0.933334 0.53307,1.466797 3.06641,1.466797 h 4.13281 l -5.06641,4.667969 c -6.4,6 -3.06575,6 4.26758,0 3.2,-2.533333 6.13268,-4.667969 6.66602,-4.667969 0.53333,0 3.73255,1.867578 7.19922,4.267578 3.46666,2.400001 9.46822,5.600651 13.60156,7.333981 l 7.33203,2.93164 v 11.06836 c 0,3.35996 -0.0636,5.93436 -0.42578,8.21094 0.28842,4.7e-4 0.5768,-0.006 0.86523,-0.004 0.20392,0.004 0.40572,0.0154 0.60938,0.0234 0.25071,-10e-6 0.50123,1e-5 0.75195,0 0.40488,1e-5 0.80987,0 1.21484,0 -0.11292,-2.5369 -0.085,-5.21679 0.0508,-8.23047 l 0.53515,-12.5332 16.26563,0.93164 c 8.93333,0.53333 19.19935,1.06784 22.66601,1.20117 4.8,0.13334 6.66719,0.79883 7.86719,2.79883 2,3.73333 8.93448,10.40156 9.73437,9.60156 0.53334,-0.4 -0.8013,-2.80065 -2.66796,-5.33398 -4.4,-5.86667 -4.39922,-6.40078 0.80078,-4.80078 5.46666,1.46666 7.73242,1.46666 7.73242,0 0,-0.66667 -2.66667,-1.86602 -6,-2.66602 -3.33333,-0.8 -6,-1.99987 -6,-2.5332 0,-0.53333 2.40065,-2.26667 5.33398,-4.000001 2.93334,-1.6 5.33399,-3.600911 5.33399,-4.267578 0,-2.133333 -1.73412,-1.598828 -8.80078,3.201172 -7.86667,5.333337 -11.4668,5.732287 -35.4668,4.265627 -15.2,-0.93334 -17.06641,-1.33347 -17.06641,-3.466799 0,-2.266667 0.26615,-2.265104 4.13282,-0.398437 3.73333,1.866666 4.66718,1.865236 9.86718,-0.134766 7.6,-2.933333 15.33399,-11.466927 15.33399,-16.933594 0,-4.8 -6.53307,-11.731901 -11.06641,-11.865234 -8.93333,-0.266667 -11.86797,0.133333 -14.66797,2 -3.06666,1.866667 -3.33281,1.866667 -4.13281,0 -1.06667,-2.8 -1.06667,-10.934765 0,-22.134766 0.8,-8.533333 1.06641,-8.932812 5.06641,-10.132812 l 4.13281,-1.199219 -4,-0.667969 c -0.53333,-0.06667 -1.48203,-0.108333 -2.73828,-0.125 z m 9.53906,35.039063 c 0.64297,-0.0049 1.34948,0.0029 2.13281,0.01953 5.2,0.266667 7.73334,1.067329 10,3.333984 4.13334,4.133334 3.86641,7.59974 -0.93359,13.066407 -8.26667,9.333334 -16.79909,10.533594 -21.73242,2.933593 -3.46667,-5.199989 -2.93373,-11.066275 1.59961,-15.599609 3.03333,-3.033333 4.43281,-3.719282 8.93359,-3.753905 z m 4.98242,97.837893 c -0.0343,0.0463 -0.0684,0.0904 -0.10351,0.13476 0.055,-0.006 0.0891,-0.0121 0.15234,-0.0195 -0.013,-0.0329 -0.0355,-0.0817 -0.0488,-0.11523 z"
         inkscape:connector-curvature="0" />
    </g>
  </g>
</svg>
