<?xml version="1.0" encoding="UTF-8" standalone="no"?>
<!-- Created with Inkscape (http://www.inkscape.org/) -->

<svg
   xmlns:dc="http://purl.org/dc/elements/1.1/"
   xmlns:cc="http://creativecommons.org/ns#"
   xmlns:rdf="http://www.w3.org/1999/02/22-rdf-syntax-ns#"
   xmlns:svg="http://www.w3.org/2000/svg"
   xmlns="http://www.w3.org/2000/svg"
   xmlns:sodipodi="http://sodipodi.sourceforge.net/DTD/sodipodi-0.dtd"
   xmlns:inkscape="http://www.inkscape.org/namespaces/inkscape"
   width="69.136086mm"
   height="60.928963mm"
   viewBox="0 0 69.136085 60.928963"
   version="1.1"
   id="svg8"
   inkscape:version="0.92.1 r15371"
   sodipodi:docname="ahorcado_3.svg">
  <defs
     id="defs2" />
  <sodipodi:namedview
     id="base"
     pagecolor="#ffffff"
     bordercolor="#666666"
     borderopacity="1.0"
     inkscape:pageopacity="0.0"
     inkscape:pageshadow="2"
     inkscape:zoom="2.59"
     inkscape:cx="161.32302"
     inkscape:cy="116.52326"
     inkscape:document-units="mm"
     inkscape:current-layer="g3684"
     showgrid="false"
     fit-margin-top="10"
     fit-margin-left="10"
     fit-margin-right="10"
     fit-margin-bottom="10"
     inkscape:window-width="874"
     inkscape:window-height="692"
     inkscape:window-x="96"
     inkscape:window-y="22"
     inkscape:window-maximized="0" />
  <metadata
     id="metadata5">
    <rdf:RDF>
      <cc:Work
         rdf:about="">
        <dc:format>image/svg+xml</dc:format>
        <dc:type
           rdf:resource="http://purl.org/dc/dcmitype/StillImage" />
        <dc:title />
      </cc:Work>
    </rdf:RDF>
  </metadata>
  <g
     inkscape:label="Capa 1"
     inkscape:groupmode="layer"
     id="layer1"
     style="display:inline"
     transform="translate(14.610899,7.7240976)">
    <g
       id="g3684"
       transform="matrix(0.03527778,0,0,-0.03527778,-6.2748144,60.554795)"
       style="display:inline;fill:#000000;stroke:none">
      <path
         id="path3682"
         transform="matrix(7.4999995,0,0,-7.4999995,-236.29845,1935.4646)"
         style="display:inline;stroke-width:0.13333334"
         d="m 162.76758,37.802734 c -3.76875,-0.05 -10.29375,0.125391 -16.59375,0.525391 -8.4,0.4 -22.53399,1.468099 -31.33399,2.134766 C 97.239971,41.929557 72.70586,41.6625 67.505859,40.0625 c -2.8,-0.933333 -3.065234,-0.801172 -1.865234,0.798828 0.933333,1.066667 2.265885,7.467578 3.199219,14.267578 l 1.732422,12.400391 -4,5.599609 c -6.266667,8.933334 -6.532683,10.000391 -0.666016,4.400391 l 5.333984,-5.066406 0.933594,7.066406 c 2.266667,19.333334 3.065495,38.265813 2.798828,70.798823 0,19.46667 -0.398828,35.73477 -0.798828,36.13477 -0.4,0.4 -8.000781,1.2 -16.800781,2 -8.933334,0.66667 -17.332682,1.99883 -18.666016,2.79883 -2,1.33333 -0.933203,1.46693 5.466797,0.93359 9.200001,-0.8 59.866662,-2.80026 124.000002,-4.93359 24.26667,-0.8 46.3987,-1.86654 49.33203,-2.5332 5.6,-1.33334 -2.53255,-1.19935 -91.19922,1.33398 -26,0.8 -47.332942,1.20026 -47.599609,0.93359 -0.266666,-0.26666 -0.534635,-18.93437 -0.667969,-41.73437 C 77.905761,106.72838 77.373177,96.594923 74.839844,75.794922 L 73.90625,67.662109 84.572266,56.462891 95.240234,45.394531 121.77344,42.996094 c 14.53333,-1.2 28.53255,-2.267578 31.19922,-2.267578 h 4.93359 l -0.13281,16.267578 V 76.0625 c 0.18705,11.971793 0.23715,18.357595 0.0684,21.640625 0.76144,-0.03017 1.44153,0.128991 2.17578,0.626953 0.13746,0.117067 0.28291,0.225416 0.41211,0.351563 0.15942,0.155659 0.29209,0.331614 0.41601,0.513671 0.0208,-2.0445 0.38969,-2.003413 4.12696,-0.199218 0.32526,0.162631 0.60709,0.291596 0.89453,0.425781 0.0368,-0.0034 0.0721,-0.01428 0.10937,-0.01367 0.29972,0.0049 0.61001,0.150487 0.87305,0.433594 2.35649,0.923241 3.79051,0.634811 7.99023,-0.980469 7.6,-2.933333 15.33399,-11.466927 15.33399,-16.933594 0,-4.8 -6.53307,-11.731901 -11.06641,-11.865234 -8.93333,-0.266667 -11.86797,0.133333 -14.66797,2 -3.06666,1.866667 -3.33281,1.866667 -4.13281,0 -1.06667,-2.8 -1.06667,-10.934765 0,-22.134766 0.8,-8.533333 1.06641,-8.932812 5.06641,-10.132812 l 4.13281,-1.199219 -4,-0.667969 c -0.53333,-0.06667 -1.48203,-0.108333 -2.73828,-0.125 z m 9.53906,35.039063 c 0.64297,-0.0049 1.34948,0.0029 2.13281,0.01953 5.2,0.266667 7.73334,1.06735 10,3.333984 4.13334,4.133334 3.86641,7.59974 -0.93359,13.066407 -8.26667,9.333334 -16.79909,10.533594 -21.73242,2.933593 -3.46667,-5.199968 -2.93373,-11.066275 1.59961,-15.599609 3.03333,-3.033333 4.43281,-3.719303 8.93359,-3.753905 z m -48.3418,7.669922 c 0.007,0.05665 0.0148,0.113327 0.0215,0.169922 0.0113,-2.8e-5 0.019,1.94e-4 0.0293,0 -0.017,-0.05675 -0.0335,-0.113834 -0.0508,-0.169922 z m 74.08008,23.029301 c -0.0347,10e-4 -0.0648,0.005 -0.0996,0.006 0.0196,0.0656 0.046,0.12303 0.0664,0.1875 0.0105,-0.0644 0.0233,-0.129 0.0332,-0.19336 z m -42.73633,0.42382 c -2e-4,0.1654 0.004,0.33173 -0.0176,0.49024 2e-4,0.036 0.0136,0.21305 0.0176,0.28515 3.6e-4,-0.25857 0.002,-0.51682 0,-0.77539 z m 21.98047,66.71485 c -0.0343,0.0463 -0.0684,0.0904 -0.10351,0.13476 0.055,-0.006 0.0891,-0.0121 0.15234,-0.0195 -0.013,-0.0329 -0.0355,-0.0817 -0.0488,-0.11523 z"
         inkscape:connector-curvature="0" />
      <rect
         id="rect3903"
         width="26.417011"
         height="322.39505"
         x="947.51532"
         y="-1202.6913"
         transform="scale(1,-1)"
         style="stroke-width:7.49999952" />
    </g>
  </g>
</svg>
