<?xml version="1.0" encoding="UTF-8" standalone="no"?>
<!-- Created with Inkscape (http://www.inkscape.org/) -->

<svg
   xmlns:dc="http://purl.org/dc/elements/1.1/"
   xmlns:cc="http://creativecommons.org/ns#"
   xmlns:rdf="http://www.w3.org/1999/02/22-rdf-syntax-ns#"
   xmlns:svg="http://www.w3.org/2000/svg"
   xmlns="http://www.w3.org/2000/svg"
   xmlns:sodipodi="http://sodipodi.sourceforge.net/DTD/sodipodi-0.dtd"
   xmlns:inkscape="http://www.inkscape.org/namespaces/inkscape"
   width="69.136086mm"
   height="60.928963mm"
   viewBox="0 0 69.136085 60.928963"
   version="1.1"
   id="svg8"
   inkscape:version="0.92.1 r15371"
   sodipodi:docname="ahorcado_5.svg">
  <defs
     id="defs2" />
  <sodipodi:namedview
     id="base"
     pagecolor="#ffffff"
     bordercolor="#666666"
     borderopacity="1.0"
     inkscape:pageopacity="0.0"
     inkscape:pageshadow="2"
     inkscape:zoom="1.979899"
     inkscape:cx="113.6104"
     inkscape:cy="135.33227"
     inkscape:document-units="mm"
     inkscape:current-layer="g3684"
     showgrid="false"
     fit-margin-top="10"
     fit-margin-left="10"
     fit-margin-right="10"
     fit-margin-bottom="10"
     inkscape:window-width="1280"
     inkscape:window-height="962"
     inkscape:window-x="-8"
     inkscape:window-y="-8"
     inkscape:window-maximized="1" />
  <metadata
     id="metadata5">
    <rdf:RDF>
      <cc:Work
         rdf:about="">
        <dc:format>image/svg+xml</dc:format>
        <dc:type
           rdf:resource="http://purl.org/dc/dcmitype/StillImage" />
        <dc:title></dc:title>
      </cc:Work>
    </rdf:RDF>
  </metadata>
  <g
     inkscape:label="Capa 1"
     inkscape:groupmode="layer"
     id="layer1"
     style="display:inline"
     transform="translate(14.610899,7.7240976)">
    <g
       id="g3684"
       transform="matrix(0.03527778,0,0,-0.03527778,-6.2748144,60.554795)"
       style="display:inline;fill:#000000;stroke:none">
      <path
         id="path3682"
         d="m 860,1648 c -63,-3 -169,-11 -235,-16 -132,-11 -316,-9 -355,3 -21,7 -23,6 -14,-6 7,-8 17,-56 24,-107 l 13,-93 -30,-42 c -47,-67 -49,-75 -5,-33 l 40,38 7,-53 c 17,-145 23,-287 21,-531 0,-146 -3,-268 -6,-271 -3,-3 -60,-9 -126,-15 -67,-5 -130,-15 -140,-21 -15,-10 -7,-11 41,-7 69,6 449,21 930,37 182,6 348,14 370,19 42,10 -19,9 -684,-10 -195,-6 -355,-9 -357,-7 -2,2 -4,142 -5,313 -1,289 -5,365 -24,521 l -7,61 80,84 80,83 199,18 c 109,9 214,17 234,17 h 37 l -1,-122 c 0,-68 0,-132 0,-143 2,-128 2,-172 -2,-183 -6,-17 -75,10 -139,56 -28,19 -61,38 -75,42 -19,5 -28,16 -35,43 -5,20 -13,37 -18,37 -12,0 -10,-26 6,-63 13,-33 13,-33 -14,-29 -15,2 -31,-1 -34,-7 -5,-7 4,-11 23,-11 h 31 l -38,-35 c -48,-45 -23,-45 32,0 24,19 46,35 50,35 4,0 28,-14 54,-32 26,-18 71,-42 102,-55 l 55,-22 v -83 c 0,-99 -6,-108 -134,-240 -46,-49 -81,-91 -77,-95 8,-9 160,140 188,186 l 21,33 22,-58 c 28,-75 111,-240 125,-249 19,-11 10,11 -39,111 -75,149 -88,201 -83,312 l 4,94 122,-7 c 67,-4 144,-8 170,-9 36,-1 50,-6 59,-21 15,-28 67,-78 73,-72 4,3 -6,21 -20,40 -33,44 -33,48 6,36 41,-11 58,-11 58,0 0,5 -20,14 -45,20 -25,6 -45,15 -45,19 0,4 18,17 40,30 22,12 40,27 40,32 0,16 -13,12 -66,-24 -59,-40 -86,-43 -266,-32 -114,7 -128,10 -128,26 0,17 2,17 31,3 28,-14 35,-14 74,1 57,22 115,86 115,127 0,36 -49,88 -83,89 -67,2 -89,-1 -110,-15 -23,-14 -25,-14 -31,0 -8,21 -8,82 0,166 6,64 8,67 38,76 l 31,9 -30,5 c -16,2 -82,1 -145,-3 z m 287,-284 c 31,-31 29,-57 -7,-98 -62,-70 -126,-79 -163,-22 -26,39 -22,83 12,117 26,26 36,29 83,28 39,-2 58,-8 75,-25 z"
         inkscape:connector-curvature="0"
         style="display:inline" />
    </g>
  </g>
</svg>
