<?xml version="1.0" encoding="UTF-8" standalone="no"?>
<!-- Created with Inkscape (http://www.inkscape.org/) -->

<svg
   xmlns:dc="http://purl.org/dc/elements/1.1/"
   xmlns:cc="http://creativecommons.org/ns#"
   xmlns:rdf="http://www.w3.org/1999/02/22-rdf-syntax-ns#"
   xmlns:svg="http://www.w3.org/2000/svg"
   xmlns="http://www.w3.org/2000/svg"
   xmlns:sodipodi="http://sodipodi.sourceforge.net/DTD/sodipodi-0.dtd"
   xmlns:inkscape="http://www.inkscape.org/namespaces/inkscape"
   width="69.136086mm"
   height="60.928963mm"
   viewBox="0 0 69.136085 60.928963"
   version="1.1"
   id="svg8"
   inkscape:version="0.92.1 r15371"
   sodipodi:docname="ahorcado_1.svg">
  <defs
     id="defs2" />
  <sodipodi:namedview
     id="base"
     pagecolor="#ffffff"
     bordercolor="#666666"
     borderopacity="1.0"
     inkscape:pageopacity="0.0"
     inkscape:pageshadow="2"
     inkscape:zoom="1.979899"
     inkscape:cx="113.6104"
     inkscape:cy="135.33227"
     inkscape:document-units="mm"
     inkscape:current-layer="g3684"
     showgrid="false"
     fit-margin-top="10"
     fit-margin-left="10"
     fit-margin-right="10"
     fit-margin-bottom="10"
     inkscape:window-width="862"
     inkscape:window-height="405"
     inkscape:window-x="1549"
     inkscape:window-y="233"
     inkscape:window-maximized="0" />
  <metadata
     id="metadata5">
    <rdf:RDF>
      <cc:Work
         rdf:about="">
        <dc:format>image/svg+xml</dc:format>
        <dc:type
           rdf:resource="http://purl.org/dc/dcmitype/StillImage" />
        <dc:title></dc:title>
      </cc:Work>
    </rdf:RDF>
  </metadata>
  <g
     inkscape:label="Capa 1"
     inkscape:groupmode="layer"
     id="layer1"
     style="display:inline"
     transform="translate(14.610899,7.7240976)">
    <g
       id="g3684"
       transform="matrix(0.03527778,0,0,-0.03527778,-6.2748144,60.554795)"
       style="display:inline;fill:#000000;stroke:none">
      <path
         id="path3682"
         transform="matrix(7.4999995,0,0,-7.4999995,-236.29845,1935.4646)"
         style="display:inline;stroke-width:0.13333334"
         d="m 156.82617,37.865234 c -3.24937,0.07988 -6.95557,0.228175 -10.65234,0.462891 -8.4,0.4 -22.53399,1.468099 -31.33399,2.134766 C 97.239947,41.929557 72.70586,41.6625 67.505859,40.0625 c -2.8,-0.933333 -3.065234,-0.801172 -1.865234,0.798828 0.933333,1.066667 2.265885,7.467578 3.199219,14.267578 l 1.732422,12.400391 -4,5.599609 c -6.266667,8.933334 -6.532683,10.000391 -0.666016,4.400391 l 5.333984,-5.066406 0.933594,7.066406 c 2.266667,19.333334 3.065495,38.265753 2.798828,70.798823 0,19.46667 -0.398828,35.73477 -0.798828,36.13477 -0.4,0.4 -8.000781,1.2 -16.800781,2 -8.933334,0.66667 -17.332682,1.99883 -18.666016,2.79883 -2,1.33333 -0.933203,1.46693 5.466797,0.93359 9.200001,-0.8 59.866662,-2.80026 124.000002,-4.93359 24.26667,-0.8 46.3987,-1.86654 49.33203,-2.5332 5.6,-1.33334 -2.53255,-1.19935 -91.19922,1.33398 -26,0.8 -47.332942,1.20026 -47.599609,0.93359 -0.266666,-0.26666 -0.534635,-18.93437 -0.667969,-41.73437 C 77.905755,106.72838 77.373177,96.594923 74.839844,75.794922 L 73.90625,67.662109 84.572266,56.462891 95.240234,45.394531 121.77344,42.996094 c 14.53333,-1.2 28.53255,-2.267578 31.19922,-2.267578 h 2.84961 c 0.26828,-0.116692 0.57629,-0.21184 0.94921,-0.263672 0.0129,-0.0018 0.041,-0.01328 0.0547,-0.01563 8.7e-4,-0.01658 -0.001,-0.02597 0,-0.04297 z m 12.51172,0.703125 c -0.0307,0.01369 -0.0736,0.02491 -0.0918,0.03906 -0.0309,0.02403 -0.055,0.05566 -0.0801,0.08594 l 0.11718,-0.0332 c 0.0567,-0.02325 0.11173,-0.05 0.16797,-0.07422 z m -45.37305,41.94336 c 0.007,0.05665 0.0148,0.113327 0.0215,0.169922 0.0113,-2.8e-5 0.019,1.94e-4 0.0293,0 -0.017,-0.05675 -0.0335,-0.113834 -0.0508,-0.169922 z m 74.08008,23.029301 c -0.0347,10e-4 -0.0648,0.005 -0.0996,0.006 0.0196,0.0656 0.046,0.12303 0.0664,0.1875 0.0105,-0.0644 0.0233,-0.129 0.0332,-0.19336 z m -20.75586,67.13867 c -0.0343,0.0463 -0.0684,0.0904 -0.10351,0.13476 0.055,-0.006 0.0891,-0.0121 0.15234,-0.0195 -0.013,-0.0329 -0.0355,-0.0817 -0.0488,-0.11523 z"
         inkscape:connector-curvature="0" />
    </g>
  </g>
</svg>
